<mxfile host="65bd71144e">
    <diagram id="9YbYj_kY3wmSIFwk5GOb" name="Page-1">
        <mxGraphModel dx="1208" dy="499" grid="1" gridSize="10" guides="1" tooltips="1" connect="1" arrows="1" fold="1" page="1" pageScale="1" pageWidth="827" pageHeight="1169" math="0" shadow="0">
            <root>
                <mxCell id="0"/>
                <mxCell id="1" parent="0"/>
                <mxCell id="6" style="edgeStyle=none;html=1;exitX=0.5;exitY=1;exitDx=0;exitDy=0;entryX=0.5;entryY=0;entryDx=0;entryDy=0;" edge="1" parent="1" source="2">
                    <mxGeometry relative="1" as="geometry">
                        <mxPoint x="100" y="130" as="targetPoint"/>
                    </mxGeometry>
                </mxCell>
                <mxCell id="2" value="Start" style="rounded=1;whiteSpace=wrap;html=1;arcSize=50;" vertex="1" parent="1">
                    <mxGeometry x="40" y="40" width="120" height="60" as="geometry"/>
                </mxCell>
                <mxCell id="12" style="edgeStyle=none;html=1;entryX=0.5;entryY=0;entryDx=0;entryDy=0;" edge="1" parent="1" target="11">
                    <mxGeometry relative="1" as="geometry">
                        <mxPoint x="100" y="190" as="sourcePoint"/>
                    </mxGeometry>
                </mxCell>
                <mxCell id="14" style="edgeStyle=none;html=1;entryX=0.5;entryY=0;entryDx=0;entryDy=0;" edge="1" parent="1" source="11" target="13">
                    <mxGeometry relative="1" as="geometry"/>
                </mxCell>
                <mxCell id="11" value="Вывод в консоль введенного массива" style="shape=document;whiteSpace=wrap;html=1;boundedLbl=1;" vertex="1" parent="1">
                    <mxGeometry x="40" y="220" width="120" height="80" as="geometry"/>
                </mxCell>
                <mxCell id="16" style="edgeStyle=none;html=1;entryX=0.5;entryY=0;entryDx=0;entryDy=0;" edge="1" parent="1" source="13" target="15">
                    <mxGeometry relative="1" as="geometry"/>
                </mxCell>
                <mxCell id="13" value="Метод решения&lt;br&gt;задачи" style="shape=process;whiteSpace=wrap;html=1;backgroundOutline=1;" vertex="1" parent="1">
                    <mxGeometry x="40" y="330" width="120" height="60" as="geometry"/>
                </mxCell>
                <mxCell id="18" style="edgeStyle=none;html=1;entryX=0.5;entryY=0;entryDx=0;entryDy=0;" edge="1" parent="1" source="15" target="17">
                    <mxGeometry relative="1" as="geometry"/>
                </mxCell>
                <mxCell id="15" value="Вывод в консоль получившегося решения" style="shape=document;whiteSpace=wrap;html=1;boundedLbl=1;" vertex="1" parent="1">
                    <mxGeometry x="40" y="430" width="120" height="80" as="geometry"/>
                </mxCell>
                <mxCell id="17" value="Stop" style="rounded=1;whiteSpace=wrap;html=1;arcSize=50;" vertex="1" parent="1">
                    <mxGeometry x="40" y="550" width="120" height="60" as="geometry"/>
                </mxCell>
                <mxCell id="19" value="" style="endArrow=none;html=1;" edge="1" parent="1">
                    <mxGeometry width="50" height="50" relative="1" as="geometry">
                        <mxPoint x="200" y="640" as="sourcePoint"/>
                        <mxPoint x="200" as="targetPoint"/>
                    </mxGeometry>
                </mxCell>
                <mxCell id="20" value="" style="endArrow=none;html=1;" edge="1" parent="1">
                    <mxGeometry width="50" height="50" relative="1" as="geometry">
                        <mxPoint y="640" as="sourcePoint"/>
                        <mxPoint x="200" y="640" as="targetPoint"/>
                    </mxGeometry>
                </mxCell>
                <mxCell id="21" value="Общий алгоритм решения задачи" style="text;html=1;align=center;verticalAlign=middle;resizable=0;points=[];autosize=1;strokeColor=none;fillColor=none;" vertex="1" parent="1">
                    <mxGeometry y="10" width="200" height="20" as="geometry"/>
                </mxCell>
                <mxCell id="23" value="Метод заполнения пользователем массива&lt;br&gt;GetArray()" style="shape=process;whiteSpace=wrap;html=1;backgroundOutline=1;" vertex="1" parent="1">
                    <mxGeometry x="440" y="20" width="170" height="90" as="geometry"/>
                </mxCell>
                <mxCell id="24" value="Метод заполнения пользователем массива" style="shape=process;whiteSpace=wrap;html=1;backgroundOutline=1;" vertex="1" parent="1">
                    <mxGeometry x="40" y="130" width="120" height="60" as="geometry"/>
                </mxCell>
                <mxCell id="35" style="edgeStyle=none;html=1;entryX=0.5;entryY=0;entryDx=0;entryDy=0;" edge="1" parent="1" source="25" target="26">
                    <mxGeometry relative="1" as="geometry"/>
                </mxCell>
                <mxCell id="25" value="Start" style="rounded=1;whiteSpace=wrap;html=1;arcSize=50;" vertex="1" parent="1">
                    <mxGeometry x="465" y="150" width="120" height="60" as="geometry"/>
                </mxCell>
                <mxCell id="34" style="edgeStyle=none;html=1;entryX=0.5;entryY=0;entryDx=0;entryDy=0;" edge="1" parent="1" source="26" target="27">
                    <mxGeometry relative="1" as="geometry"/>
                </mxCell>
                <mxCell id="26" value="Ввод пользователем длины массива&lt;br&gt;arrayLength" style="shape=parallelogram;perimeter=parallelogramPerimeter;whiteSpace=wrap;html=1;fixedSize=1;" vertex="1" parent="1">
                    <mxGeometry x="447.5" y="240" width="155" height="60" as="geometry"/>
                </mxCell>
                <mxCell id="41" style="edgeStyle=none;html=1;entryX=0.5;entryY=0;entryDx=0;entryDy=0;" edge="1" parent="1" source="27" target="39">
                    <mxGeometry relative="1" as="geometry"/>
                </mxCell>
                <mxCell id="27" value="arrayLength корректное&lt;br&gt;&amp;nbsp;число?" style="rhombus;whiteSpace=wrap;html=1;" vertex="1" parent="1">
                    <mxGeometry x="432.5" y="340" width="185" height="90" as="geometry"/>
                </mxCell>
                <mxCell id="31" value="" style="endArrow=none;html=1;entryX=0.003;entryY=0.5;entryDx=0;entryDy=0;entryPerimeter=0;" edge="1" parent="1" target="27">
                    <mxGeometry width="50" height="50" relative="1" as="geometry">
                        <mxPoint x="380" y="385" as="sourcePoint"/>
                        <mxPoint x="430" y="383" as="targetPoint"/>
                    </mxGeometry>
                </mxCell>
                <mxCell id="32" value="" style="endArrow=none;html=1;" edge="1" parent="1">
                    <mxGeometry width="50" height="50" relative="1" as="geometry">
                        <mxPoint x="380" y="385" as="sourcePoint"/>
                        <mxPoint x="380" y="270" as="targetPoint"/>
                    </mxGeometry>
                </mxCell>
                <mxCell id="33" value="" style="endArrow=classic;html=1;entryX=0;entryY=0.5;entryDx=0;entryDy=0;" edge="1" parent="1" target="26">
                    <mxGeometry width="50" height="50" relative="1" as="geometry">
                        <mxPoint x="380" y="270" as="sourcePoint"/>
                        <mxPoint x="570" y="370" as="targetPoint"/>
                    </mxGeometry>
                </mxCell>
                <mxCell id="44" style="edgeStyle=none;html=1;entryX=0.5;entryY=0;entryDx=0;entryDy=0;" edge="1" parent="1" source="39" target="40">
                    <mxGeometry relative="1" as="geometry"/>
                </mxCell>
                <mxCell id="39" value="i = 0" style="rounded=0;whiteSpace=wrap;html=1;" vertex="1" parent="1">
                    <mxGeometry x="465" y="470" width="120" height="60" as="geometry"/>
                </mxCell>
                <mxCell id="46" style="edgeStyle=none;html=1;entryX=0;entryY=0.5;entryDx=0;entryDy=0;exitX=1;exitY=0.5;exitDx=0;exitDy=0;" edge="1" parent="1" source="40" target="45">
                    <mxGeometry relative="1" as="geometry">
                        <mxPoint x="620" y="610" as="sourcePoint"/>
                    </mxGeometry>
                </mxCell>
                <mxCell id="50" style="edgeStyle=none;html=1;entryX=0.496;entryY=-0.052;entryDx=0;entryDy=0;entryPerimeter=0;" edge="1" parent="1" source="40" target="48">
                    <mxGeometry relative="1" as="geometry"/>
                </mxCell>
                <mxCell id="57" style="edgeStyle=none;html=1;" edge="1" parent="1" source="40">
                    <mxGeometry relative="1" as="geometry">
                        <mxPoint x="524.9999999999999" y="650" as="targetPoint"/>
                    </mxGeometry>
                </mxCell>
                <mxCell id="40" value="i &amp;lt; arrayLength" style="rhombus;whiteSpace=wrap;html=1;" vertex="1" parent="1">
                    <mxGeometry x="432.5" y="560" width="185" height="100" as="geometry"/>
                </mxCell>
                <mxCell id="42" value="Нет" style="text;html=1;align=center;verticalAlign=middle;resizable=0;points=[];autosize=1;strokeColor=none;fillColor=none;" vertex="1" parent="1">
                    <mxGeometry x="390" y="360" width="40" height="20" as="geometry"/>
                </mxCell>
                <mxCell id="43" value="Да" style="text;html=1;align=center;verticalAlign=middle;resizable=0;points=[];autosize=1;strokeColor=none;fillColor=none;" vertex="1" parent="1">
                    <mxGeometry x="535" y="440" width="30" height="20" as="geometry"/>
                </mxCell>
                <mxCell id="45" value="Stop" style="rounded=1;whiteSpace=wrap;html=1;arcSize=50;" vertex="1" parent="1">
                    <mxGeometry x="670" y="580" width="120" height="60" as="geometry"/>
                </mxCell>
                <mxCell id="47" value="Нет" style="text;html=1;align=center;verticalAlign=middle;resizable=0;points=[];autosize=1;strokeColor=none;fillColor=none;" vertex="1" parent="1">
                    <mxGeometry x="617.5" y="585" width="40" height="20" as="geometry"/>
                </mxCell>
                <mxCell id="53" style="edgeStyle=none;html=1;entryX=0.5;entryY=0;entryDx=0;entryDy=0;" edge="1" parent="1" source="48" target="52">
                    <mxGeometry relative="1" as="geometry"/>
                </mxCell>
                <mxCell id="48" value="Ввод пользователем элемента массива&lt;br&gt;array[i]" style="shape=parallelogram;perimeter=parallelogramPerimeter;whiteSpace=wrap;html=1;fixedSize=1;" vertex="1" parent="1">
                    <mxGeometry x="447.5" y="690" width="155" height="60" as="geometry"/>
                </mxCell>
                <mxCell id="51" value="Да" style="text;html=1;align=center;verticalAlign=middle;resizable=0;points=[];autosize=1;strokeColor=none;fillColor=none;" vertex="1" parent="1">
                    <mxGeometry x="530" y="660" width="30" height="20" as="geometry"/>
                </mxCell>
                <mxCell id="54" style="edgeStyle=none;html=1;entryX=0;entryY=0.5;entryDx=0;entryDy=0;" edge="1" parent="1" target="40">
                    <mxGeometry relative="1" as="geometry">
                        <mxPoint x="370" y="610" as="sourcePoint"/>
                    </mxGeometry>
                </mxCell>
                <mxCell id="52" value="i++" style="rounded=0;whiteSpace=wrap;html=1;" vertex="1" parent="1">
                    <mxGeometry x="465" y="780" width="120" height="60" as="geometry"/>
                </mxCell>
                <mxCell id="55" value="" style="endArrow=none;html=1;" edge="1" parent="1">
                    <mxGeometry width="50" height="50" relative="1" as="geometry">
                        <mxPoint x="370" y="810" as="sourcePoint"/>
                        <mxPoint x="370" y="610" as="targetPoint"/>
                    </mxGeometry>
                </mxCell>
                <mxCell id="56" value="" style="endArrow=none;html=1;entryX=0;entryY=0.5;entryDx=0;entryDy=0;" edge="1" parent="1" target="52">
                    <mxGeometry width="50" height="50" relative="1" as="geometry">
                        <mxPoint x="370" y="810" as="sourcePoint"/>
                        <mxPoint x="570" y="730" as="targetPoint"/>
                    </mxGeometry>
                </mxCell>
                <mxCell id="58" value="" style="endArrow=none;html=1;" edge="1" parent="1">
                    <mxGeometry width="50" height="50" relative="1" as="geometry">
                        <mxPoint y="880" as="sourcePoint"/>
                        <mxPoint x="820" y="880" as="targetPoint"/>
                    </mxGeometry>
                </mxCell>
                <mxCell id="59" value="Метод решения&lt;br&gt;задачи&lt;br&gt;GetResultArray()" style="shape=process;whiteSpace=wrap;html=1;backgroundOutline=1;" vertex="1" parent="1">
                    <mxGeometry x="345" y="920" width="120" height="60" as="geometry"/>
                </mxCell>
                <mxCell id="66" style="edgeStyle=none;html=1;entryX=0.5;entryY=0;entryDx=0;entryDy=0;" edge="1" parent="1" source="60" target="65">
                    <mxGeometry relative="1" as="geometry"/>
                </mxCell>
                <mxCell id="60" value="Получение массива от GetArray()&lt;br&gt;array" style="shape=parallelogram;perimeter=parallelogramPerimeter;whiteSpace=wrap;html=1;fixedSize=1;" vertex="1" parent="1">
                    <mxGeometry x="320" y="1120" width="160" height="60" as="geometry"/>
                </mxCell>
                <mxCell id="64" style="edgeStyle=none;html=1;entryX=0.5;entryY=0;entryDx=0;entryDy=0;" edge="1" parent="1" source="61" target="60">
                    <mxGeometry relative="1" as="geometry"/>
                </mxCell>
                <mxCell id="61" value="Start" style="rounded=1;whiteSpace=wrap;html=1;arcSize=50;" vertex="1" parent="1">
                    <mxGeometry x="340" y="1030" width="120" height="60" as="geometry"/>
                </mxCell>
                <mxCell id="68" style="edgeStyle=none;html=1;entryX=0.5;entryY=0;entryDx=0;entryDy=0;" edge="1" parent="1" source="65" target="67">
                    <mxGeometry relative="1" as="geometry"/>
                </mxCell>
                <mxCell id="65" value="count = 0&lt;br&gt;resultArray[count]&lt;br&gt;maxLengthElem = 3" style="rounded=0;whiteSpace=wrap;html=1;" vertex="1" parent="1">
                    <mxGeometry x="340" y="1220" width="120" height="60" as="geometry"/>
                </mxCell>
                <mxCell id="70" style="edgeStyle=none;html=1;entryX=0.5;entryY=0;entryDx=0;entryDy=0;" edge="1" parent="1" source="67" target="69">
                    <mxGeometry relative="1" as="geometry"/>
                </mxCell>
                <mxCell id="67" value="i = 0" style="rounded=0;whiteSpace=wrap;html=1;" vertex="1" parent="1">
                    <mxGeometry x="340" y="1320" width="120" height="60" as="geometry"/>
                </mxCell>
                <mxCell id="72" style="edgeStyle=none;html=1;entryX=0.5;entryY=0;entryDx=0;entryDy=0;" edge="1" parent="1" source="69" target="71">
                    <mxGeometry relative="1" as="geometry"/>
                </mxCell>
                <mxCell id="69" value="i &amp;lt; array.GetLength" style="rhombus;whiteSpace=wrap;html=1;" vertex="1" parent="1">
                    <mxGeometry x="307.5" y="1430" width="185" height="100" as="geometry"/>
                </mxCell>
                <mxCell id="74" style="edgeStyle=none;html=1;entryX=0;entryY=0.5;entryDx=0;entryDy=0;" edge="1" parent="1" target="69">
                    <mxGeometry relative="1" as="geometry">
                        <mxPoint x="240" y="1480" as="sourcePoint"/>
                    </mxGeometry>
                </mxCell>
                <mxCell id="71" value="array[i] &amp;lt;= maxLengthElem" style="rhombus;whiteSpace=wrap;html=1;" vertex="1" parent="1">
                    <mxGeometry x="307.5" y="1580" width="185" height="100" as="geometry"/>
                </mxCell>
                <mxCell id="73" value="Да" style="text;html=1;align=center;verticalAlign=middle;resizable=0;points=[];autosize=1;strokeColor=none;fillColor=none;" vertex="1" parent="1">
                    <mxGeometry x="402.5" y="1540" width="30" height="20" as="geometry"/>
                </mxCell>
                <mxCell id="75" value="" style="endArrow=none;html=1;" edge="1" parent="1">
                    <mxGeometry width="50" height="50" relative="1" as="geometry">
                        <mxPoint x="240" y="1480" as="sourcePoint"/>
                        <mxPoint x="240" y="1630" as="targetPoint"/>
                    </mxGeometry>
                </mxCell>
                <mxCell id="76" value="" style="endArrow=none;html=1;entryX=0;entryY=0.5;entryDx=0;entryDy=0;" edge="1" parent="1" target="71">
                    <mxGeometry width="50" height="50" relative="1" as="geometry">
                        <mxPoint x="240" y="1630" as="sourcePoint"/>
                        <mxPoint x="430" y="1650" as="targetPoint"/>
                    </mxGeometry>
                </mxCell>
                <mxCell id="77" value="Нет" style="text;html=1;align=center;verticalAlign=middle;resizable=0;points=[];autosize=1;strokeColor=none;fillColor=none;" vertex="1" parent="1">
                    <mxGeometry x="260" y="1610" width="40" height="20" as="geometry"/>
                </mxCell>
                <mxCell id="78" value="" style="rounded=0;whiteSpace=wrap;html=1;" vertex="1" parent="1">
                    <mxGeometry x="340" y="1724" width="120" height="60" as="geometry"/>
                </mxCell>
            </root>
        </mxGraphModel>
    </diagram>
</mxfile>